<?xml version="1.0" encoding="UTF-8"?>
<svg xmlns="http://www.w3.org/2000/svg" xmlns:xlink="http://www.w3.org/1999/xlink" width="15pt" height="15pt" viewBox="0 0 15 15" version="1.1">
<g id="surface1">
<path style=" stroke:none;fill-rule:nonzero;fill:rgb(29.803922%,45.882353%,63.921569%);fill-opacity:1;" d="M 2.3125 0 L 12.6875 0 C 13.964844 0 15 1.035156 15 2.3125 L 15 12.6875 C 15 13.964844 13.964844 15 12.6875 15 L 2.3125 15 C 1.035156 15 0 13.964844 0 12.6875 L 0 2.3125 C 0 1.035156 1.035156 0 2.3125 0 "/>
<path style=" stroke:none;fill-rule:nonzero;fill:rgb(100%,100%,100%);fill-opacity:1;" d="M 7.375 10.5 L 7.988281 10.5 C 7.988281 10.5 8.171875 10.480469 8.269531 10.378906 C 8.355469 10.285156 8.351562 10.109375 8.351562 10.109375 C 8.351562 10.109375 8.339844 9.285156 8.722656 9.164062 C 9.097656 9.042969 9.582031 9.960938 10.09375 10.3125 C 10.484375 10.578125 10.777344 10.519531 10.777344 10.519531 L 12.148438 10.5 C 12.148438 10.5 12.867188 10.457031 12.527344 9.890625 C 12.496094 9.847656 12.328125 9.476562 11.507812 8.714844 C 10.648438 7.914062 10.761719 8.042969 11.796875 6.664062 C 12.429688 5.824219 12.679688 5.3125 12.601562 5.089844 C 12.527344 4.882812 12.0625 4.9375 12.0625 4.9375 L 10.519531 4.945312 C 10.519531 4.945312 10.402344 4.929688 10.320312 4.980469 C 10.238281 5.03125 10.183594 5.148438 10.183594 5.148438 C 10.183594 5.148438 9.9375 5.796875 9.613281 6.351562 C 8.925781 7.519531 8.652344 7.578125 8.539062 7.507812 C 8.277344 7.339844 8.34375 6.828125 8.34375 6.464844 C 8.34375 5.335938 8.515625 4.863281 8.007812 4.742188 C 7.839844 4.699219 7.71875 4.675781 7.289062 4.667969 C 6.738281 4.664062 6.269531 4.671875 6.007812 4.800781 C 5.832031 4.886719 5.695312 5.078125 5.777344 5.089844 C 5.878906 5.101562 6.113281 5.152344 6.234375 5.320312 C 6.390625 5.535156 6.386719 6.015625 6.386719 6.015625 C 6.386719 6.015625 6.476562 7.347656 6.175781 7.515625 C 5.964844 7.628906 5.679688 7.394531 5.066406 6.335938 C 4.753906 5.792969 4.515625 5.195312 4.515625 5.195312 C 4.515625 5.195312 4.472656 5.082031 4.390625 5.023438 C 4.292969 4.949219 4.152344 4.925781 4.152344 4.925781 L 2.6875 4.9375 C 2.6875 4.9375 2.464844 4.941406 2.386719 5.039062 C 2.3125 5.125 2.378906 5.300781 2.378906 5.300781 C 2.378906 5.300781 3.527344 7.988281 4.828125 9.339844 C 6.019531 10.582031 7.375 10.5 7.375 10.5 "/>
</g>
</svg>
