<svg width="30" height="28" viewBox="0 0 30 28" fill="none" xmlns="http://www.w3.org/2000/svg">
<path d="M4.98443 26.6568C4.8755 26.5477 4.72433 26.4851 4.57022 26.4851C4.41612 26.4851 4.26494 26.5477 4.15595 26.6568C4.04697 26.7658 3.98427 26.917 3.98427 27.0711C3.98427 27.2252 4.04691 27.3763 4.15595 27.4853C4.26494 27.5943 4.41612 27.657 4.57022 27.657C4.72433 27.657 4.8755 27.5943 4.98443 27.4853C5.09342 27.3763 5.15617 27.2252 5.15617 27.0711C5.15617 26.917 5.09348 26.7658 4.98443 26.6568Z" fill="#FFBB01"/>
<path d="M27.5116 10.7193C27.4026 10.6102 27.252 10.5476 27.0973 10.5476C26.9432 10.5476 26.792 10.6102 26.6831 10.7193C26.5741 10.8283 26.5114 10.9795 26.5114 11.1336C26.5114 11.2877 26.5741 11.4388 26.6831 11.5478C26.792 11.6568 26.9432 11.7195 27.0973 11.7195C27.252 11.7195 27.4026 11.6568 27.5116 11.5478C27.6211 11.4388 27.6838 11.2877 27.6838 11.1336C27.6838 10.9795 27.6211 10.8283 27.5116 10.7193Z" fill="#FFBB01"/>
<path d="M29.8284 0.160179C29.7185 0.0576405 29.5694 0 29.4139 0L14.9999 0.000710936C14.6763 0.000710936 14.414 0.245601 14.414 0.547585V2.11148L8.85979 3.50049C8.54718 3.57869 8.36167 3.87854 8.44546 4.17024L11.3241 14.1967L8.83383 16.5209C8.51689 16.089 7.98473 15.8049 7.38278 15.8049H1.75781C0.788531 15.8049 1.52588e-05 16.5409 1.52588e-05 17.4455V26.3593C1.52588e-05 27.264 0.788531 27.9999 1.75781 27.9999H7.38284C8.20628 27.9999 8.89899 27.4686 9.08884 26.7542L9.78554 27.3212C10.3234 27.7589 11.0125 28 11.7261 28H29.4141C29.7376 28 30 27.7551 30 27.4531V0.546874C29.9999 0.401843 29.9383 0.262718 29.8284 0.160179ZM7.96867 26.3594C7.96867 26.6609 7.70582 26.9063 7.38272 26.9063H1.75776C1.43466 26.9063 1.1718 26.6609 1.1718 26.3594V17.4456C1.1718 17.144 1.43466 16.8987 1.75776 16.8987H3.98432V23.1984C3.98432 23.5004 4.2467 23.7453 4.57027 23.7453C4.89383 23.7453 5.15622 23.5004 5.15622 23.1984V16.8987H7.38278C7.70587 16.8987 7.96873 17.144 7.96873 17.4456V26.3594H7.96867ZM9.72905 4.41541L14.414 3.24378V5.27022L14.0213 5.36844C13.8711 5.40601 13.7432 5.49761 13.6655 5.62323C13.5878 5.74885 13.5667 5.89809 13.6069 6.0382C13.8321 6.82247 13.3317 7.63146 12.4913 7.84163C12.3411 7.87925 12.2129 7.97102 12.1353 8.09691C12.0576 8.22274 12.0367 8.37226 12.0773 8.51248L14.3613 16.4059H13.1853L12.5792 14.1931C12.56 14.1226 12.5262 14.0577 12.481 14.0013L9.72905 4.41541ZM14.414 7.77813V12.3927L13.3453 8.6994C13.7917 8.48426 14.157 8.16237 14.414 7.77813ZM22.832 26.9062H11.726C11.2956 26.9062 10.88 26.7608 10.5556 26.4969L9.14058 25.3451V17.7814L11.6987 15.3939L12.1627 17.0881C12.229 17.3302 12.4626 17.4995 12.7304 17.4995L24.2504 17.5002C24.7028 17.5002 25.0707 17.8436 25.0707 18.2658C25.0707 18.688 24.7028 19.0314 24.2504 19.0314H18.3475C18.024 19.0314 17.7616 19.2763 17.7616 19.5783C17.7616 19.8803 18.024 20.1252 18.3475 20.1252H26.0844C26.5368 20.1252 26.9048 20.4686 26.9048 20.8908C26.9048 21.313 26.5368 21.6564 26.0844 21.6564H18.3475C18.024 21.6564 17.7616 21.9013 17.7616 22.2033C17.7616 22.5053 18.024 22.7502 18.3475 22.7502H24.8307C25.283 22.7502 25.651 23.0936 25.651 23.5158C25.651 23.938 25.283 24.2814 24.8307 24.2814H18.3475C18.024 24.2814 17.7616 24.5263 17.7616 24.8283C17.7616 25.1303 18.024 25.3752 18.3475 25.3752H22.832C23.2844 25.3752 23.6523 25.7186 23.6523 26.1408C23.6523 26.5628 23.2843 26.9062 22.832 26.9062ZM28.8281 26.9062H28.8281H24.6468C24.7604 26.6725 24.8242 26.4135 24.8242 26.1406C24.8242 25.8677 24.7604 25.6086 24.6468 25.375H24.8307C25.9292 25.375 26.8229 24.5409 26.8229 23.5156C26.8229 23.2166 26.7464 22.934 26.6114 22.6835C27.4549 22.4672 28.0766 21.7456 28.0766 20.8907C28.0766 20.4759 27.9302 20.0925 27.6833 19.783V12.8519C27.6833 12.5499 27.4209 12.305 27.0974 12.305C26.7738 12.305 26.5114 12.5499 26.5114 12.8519V19.0749C26.3737 19.0467 26.2309 19.0314 26.0843 19.0314H26.0651C26.1787 18.7978 26.2425 18.5387 26.2425 18.2658C26.2425 17.2405 25.3488 16.4065 24.2504 16.4065H23.3084C24.3086 16.0062 25.011 15.0784 25.011 14C25.011 12.5568 23.7531 11.3827 22.2068 11.3827C20.6606 11.3827 19.4027 12.5568 19.4027 14C19.4027 15.0784 20.1052 16.0062 21.1053 16.4065H17.9023V6.00812C18.949 5.79522 19.775 5.0244 20.003 4.04741H24.4106C24.6387 5.0244 25.4646 5.79522 26.5114 6.00812V7.70835C26.5114 8.01034 26.7738 8.25523 27.0973 8.25523C27.4209 8.25523 27.6833 8.01034 27.6833 7.70835V5.51987C27.6833 5.21789 27.4209 4.973 27.0973 4.973C26.2274 4.973 25.5197 4.31243 25.5197 3.50054C25.5197 3.19856 25.2573 2.95367 24.9338 2.95367H19.4799C19.1564 2.95367 18.894 3.19856 18.894 3.50054C18.894 4.31248 18.1863 4.973 17.3164 4.973C16.9928 4.973 16.7304 5.21789 16.7304 5.51987V16.4064H15.5859V1.09435L28.8281 1.09375V26.9062ZM22.207 15.5235C21.3069 15.5235 20.5747 14.84 20.5747 14C20.5747 13.16 21.3069 12.4765 22.207 12.4765C23.107 12.4765 23.8393 13.16 23.8393 14C23.8393 14.84 23.107 15.5235 22.207 15.5235Z" fill="#FFBB01"/>
</svg>
