<svg width="30" height="30" viewBox="0 0 30 30" fill="none" xmlns="http://www.w3.org/2000/svg">
<path d="M15.9206 18.9945C16.4411 18.954 16.9157 18.6885 17.2237 18.265L21.9054 11.7928C22.0489 11.5943 22.0274 11.3203 21.8534 11.1463C21.6794 10.9728 21.4054 10.9513 21.2069 11.0943L14.7335 15.7774C14.3115 16.0844 14.046 16.5589 14.0055 17.0794C13.965 17.6 14.1535 18.1095 14.522 18.478C14.8575 18.814 15.3101 19 15.7806 19C15.8271 19 15.8736 18.998 15.9206 18.9945ZM15.0025 17.1574C15.02 16.9289 15.1371 16.7204 15.3211 16.5864L19.2698 13.7299L16.4141 17.6775C16.2791 17.863 16.0706 17.9795 15.8421 17.9975C15.6146 18.0125 15.3911 17.9335 15.2286 17.771C15.0675 17.6095 14.9845 17.3855 15.0025 17.1574Z" fill="#FFBB01"/>
<path d="M27.817 9.782C27.8118 9.7715 27.8118 9.7605 27.806 9.75C27.7997 9.74 27.7898 9.7345 27.783 9.725C27.2542 8.858 26.6287 8.0515 25.9185 7.3205L27.0419 6.247L27.7814 6.954L30.0001 4.8325L27.7814 2.7115L25.5623 4.8325L26.3024 5.54L25.1789 6.6135C24.4143 5.9345 23.5712 5.336 22.6637 4.8305C22.6538 4.824 22.648 4.8145 22.6376 4.8085C22.6266 4.8025 22.6151 4.803 22.6041 4.7975C20.9864 3.9065 19.1689 3.313 17.2311 3.0955V2.5H18.0157C18.7369 2.5 19.3232 1.9395 19.3232 1.25C19.3232 0.5605 18.7364 0 18.0151 0H13.308C12.5867 0 12.0004 0.5605 12.0004 1.25C12.0004 1.9395 12.5867 2.5 13.308 2.5H14.0925V3.078C13.5277 3.1355 12.9638 3.2235 12.4063 3.3455C12.1249 3.407 11.9487 3.6755 12.0135 3.9445C12.0778 4.2135 12.3587 4.3825 12.6401 4.32C13.1213 4.2145 13.6072 4.135 14.0941 4.0815L14.6553 4.04C14.8268 4.0275 14.9848 4.0185 15.1385 4.0115V5C15.1385 5.2765 15.3723 5.5 15.6616 5.5C15.9508 5.5 16.1846 5.2765 16.1846 5V4.015C18.1516 4.1015 20.0052 4.6065 21.6532 5.4375L21.1376 6.291C20.9932 6.5305 21.079 6.836 21.329 6.974C21.4111 7.0195 21.5011 7.041 21.59 7.041C21.7709 7.041 21.9467 6.9515 22.0434 6.791L22.5575 5.9395C24.1941 6.932 25.5842 8.261 26.6224 9.8255L25.7317 10.317C25.4823 10.455 25.3965 10.7605 25.5414 11C25.6386 11.1605 25.8139 11.25 25.9948 11.25C26.0837 11.25 26.1737 11.2285 26.2558 11.183L27.1486 10.69C28.0299 12.288 28.5597 14.089 28.6387 15.9995H27.6057C27.3165 15.9995 27.0827 16.223 27.0827 16.4995C27.0827 16.776 27.3165 16.9995 27.6057 16.9995H28.6387C28.5597 18.91 28.0299 20.711 27.1486 22.309L26.2558 21.816C26.0058 21.678 25.6857 21.759 25.5414 21.999C25.397 22.2385 25.4828 22.544 25.7328 22.682L26.6235 23.1735C25.5853 24.738 24.1951 26.067 22.5586 27.0595L22.0445 26.208C21.8996 25.968 21.579 25.8865 21.33 26.025C21.0795 26.163 20.9937 26.469 21.1386 26.708L21.6543 27.5615C20.0063 28.3925 18.1527 28.8975 16.1856 28.984V28C16.1856 27.7235 15.9518 27.5 15.6626 27.5C15.3734 27.5 15.1396 27.7235 15.1396 28V28.988C14.3043 28.9605 13.4665 28.8605 12.6417 28.6795C12.3603 28.615 12.0794 28.786 12.0151 29.055C11.9502 29.324 12.1265 29.5925 12.4079 29.654C13.4518 29.884 14.5182 30 15.5763 30C15.6019 30 15.6265 29.9985 15.6521 29.998C15.6558 29.998 15.6584 30 15.6616 30C15.6657 30 15.6694 29.9975 15.6736 29.9975C18.1877 29.981 20.5465 29.332 22.5874 28.211C22.6036 28.204 22.6208 28.2005 22.6365 28.1915C22.647 28.1855 22.6527 28.176 22.6627 28.1695C24.7751 26.9925 26.5403 25.307 27.7741 23.289C27.7841 23.2755 27.7966 23.265 27.8055 23.25C27.8118 23.2395 27.8113 23.2285 27.8165 23.218C29.0111 21.238 29.6978 18.945 29.6978 16.5C29.6978 14.055 29.0111 11.762 27.817 9.782ZM27.7809 4.1255L28.5205 4.8325L27.7809 5.54L27.0409 4.8325L27.7809 4.1255ZM15.1385 3.0105V1.5H13.308C13.1642 1.5 13.0465 1.3875 13.0465 1.25C13.0465 1.1125 13.1642 1 13.308 1H18.0151C18.159 1 18.2766 1.1125 18.2766 1.25C18.2766 1.3875 18.159 1.5 18.0151 1.5H16.1846V3.0105C16.0026 3.0035 15.8289 3 15.6616 3C15.6469 3 15.6302 3.001 15.6155 3.001C15.6025 3.001 15.5894 3 15.5763 3C15.4905 3 15.4048 3.0055 15.319 3.007C15.2583 3.0085 15.2013 3.008 15.1385 3.0105Z" fill="#FFBB01"/>
<path d="M6.63567 7.44495H3.9768C3.68273 7.44495 3.44503 7.68265 3.44503 7.97672C3.44503 8.27079 3.68273 8.50849 3.9768 8.50849H6.63567C6.92974 8.50849 7.16745 8.27079 7.16745 7.97672C7.16745 7.68265 6.92974 7.44495 6.63567 7.44495Z" fill="#FFBB01"/>
<path d="M10.5001 11H5.50008C5.22358 11 5.00008 11.2235 5.00008 11.5C5.00008 11.7765 5.22358 12 5.50008 12H10.5001C10.7766 12 11.0001 11.7765 11.0001 11.5C11.0001 11.2235 10.7766 11 10.5001 11Z" fill="#FFBB01"/>
<path d="M10.4707 14H2.5295C2.23673 14 2.00008 14.2235 2.00008 14.5C2.00008 14.7765 2.23673 15 2.5295 15H10.4707C10.7634 15 11.0001 14.7765 11.0001 14.5C11.0001 14.2235 10.7634 14 10.4707 14Z" fill="#FFBB01"/>
<path d="M10.4763 18H0.523893C0.234227 18 8.39233e-05 18.2235 8.39233e-05 18.5C8.39233e-05 18.7765 0.234227 19 0.523893 19H10.4763C10.7659 19 11.0001 18.7765 11.0001 18.5C11.0001 18.2235 10.7659 18 10.4763 18Z" fill="#FFBB01"/>
<path d="M10.4668 21H3.53342C3.23848 21 3.00008 21.2235 3.00008 21.5C3.00008 21.7765 3.23848 22 3.53342 22H10.4668C10.7617 22 11.0001 21.7765 11.0001 21.5C11.0001 21.2235 10.7617 21 10.4668 21Z" fill="#FFBB01"/>
<path d="M10.4445 25H6.55564C6.24842 25 6.00008 25.2235 6.00008 25.5C6.00008 25.7765 6.24842 26 6.55564 26H10.4445C10.7518 26 11.0001 25.7765 11.0001 25.5C11.0001 25.2235 10.7518 25 10.4445 25Z" fill="#FFBB01"/>
</svg>
